<svg width="255" height="31" viewBox="0 0 255 31" fill="none" xmlns="http://www.w3.org/2000/svg">
<path d="M0.0227273 24V0.727272H4.94318V19.9432H14.9205V24H0.0227273ZM25.9744 24.3409C24.2093 24.3409 22.6828 23.9659 21.3949 23.2159C20.1146 22.4583 19.1259 21.4053 18.429 20.0568C17.732 18.7008 17.3835 17.1288 17.3835 15.3409C17.3835 13.5379 17.732 11.9621 18.429 10.6136C19.1259 9.25758 20.1146 8.20454 21.3949 7.45454C22.6828 6.69697 24.2093 6.31818 25.9744 6.31818C27.7396 6.31818 29.2623 6.69697 30.5426 7.45454C31.8305 8.20454 32.8229 9.25758 33.5199 10.6136C34.2169 11.9621 34.5653 13.5379 34.5653 15.3409C34.5653 17.1288 34.2169 18.7008 33.5199 20.0568C32.8229 21.4053 31.8305 22.4583 30.5426 23.2159C29.2623 23.9659 27.7396 24.3409 25.9744 24.3409ZM25.9972 20.5909C26.8002 20.5909 27.4706 20.3636 28.0085 19.9091C28.5464 19.447 28.9517 18.8182 29.2244 18.0227C29.5047 17.2273 29.6449 16.322 29.6449 15.3068C29.6449 14.2917 29.5047 13.3864 29.2244 12.5909C28.9517 11.7955 28.5464 11.1667 28.0085 10.7045C27.4706 10.2424 26.8002 10.0114 25.9972 10.0114C25.1866 10.0114 24.5047 10.2424 23.9517 10.7045C23.4063 11.1667 22.9934 11.7955 22.7131 12.5909C22.4403 13.3864 22.304 14.2917 22.304 15.3068C22.304 16.322 22.4403 17.2273 22.7131 18.0227C22.9934 18.8182 23.4063 19.447 23.9517 19.9091C24.5047 20.3636 25.1866 20.5909 25.9972 20.5909ZM45.5767 30.9091C44.0085 30.9091 42.6638 30.6932 41.5426 30.2614C40.429 29.8371 39.5426 29.2576 38.8835 28.5227C38.2244 27.7879 37.7964 26.9621 37.5994 26.0455L42.0767 25.4432C42.2131 25.7917 42.429 26.1174 42.7244 26.4205C43.0199 26.7235 43.41 26.9659 43.8949 27.1477C44.3873 27.3371 44.9858 27.4318 45.6903 27.4318C46.7434 27.4318 47.6108 27.1742 48.2926 26.6591C48.982 26.1515 49.3267 25.2992 49.3267 24.1023V20.9091H49.1222C48.91 21.3939 48.5919 21.8523 48.1676 22.2841C47.7434 22.7159 47.1979 23.0682 46.5312 23.3409C45.8646 23.6136 45.0691 23.75 44.1449 23.75C42.8343 23.75 41.6411 23.447 40.5653 22.8409C39.4972 22.2273 38.6449 21.2917 38.0085 20.0341C37.3797 18.7689 37.0653 17.1705 37.0653 15.2386C37.0653 13.2614 37.3873 11.6098 38.0312 10.2841C38.6752 8.95833 39.5313 7.96591 40.5994 7.30682C41.6752 6.64773 42.8532 6.31818 44.1335 6.31818C45.1108 6.31818 45.929 6.48485 46.5881 6.81818C47.2472 7.14394 47.7775 7.55303 48.179 8.04545C48.5881 8.5303 48.9025 9.00758 49.1222 9.47727H49.304V6.54545H54.1108V24.1705C54.1108 25.6553 53.7472 26.8977 53.0199 27.8977C52.2926 28.8977 51.285 29.6477 49.9972 30.1477C48.7169 30.6553 47.2434 30.9091 45.5767 30.9091ZM45.679 20.1136C46.4593 20.1136 47.1184 19.9205 47.6562 19.5341C48.2017 19.1402 48.6184 18.5795 48.9062 17.8523C49.2017 17.1174 49.3494 16.2386 49.3494 15.2159C49.3494 14.1932 49.2055 13.3068 48.9176 12.5568C48.6297 11.7992 48.2131 11.2121 47.6676 10.7955C47.1222 10.3788 46.4593 10.1705 45.679 10.1705C44.8835 10.1705 44.2131 10.3864 43.6676 10.8182C43.1222 11.2424 42.7093 11.8333 42.429 12.5909C42.1487 13.3485 42.0085 14.2235 42.0085 15.2159C42.0085 16.2235 42.1487 17.0947 42.429 17.8295C42.7169 18.5568 43.1297 19.1212 43.6676 19.5227C44.2131 19.9167 44.8835 20.1136 45.679 20.1136ZM65.8494 24.3409C64.0843 24.3409 62.5578 23.9659 61.2699 23.2159C59.9896 22.4583 59.0009 21.4053 58.304 20.0568C57.607 18.7008 57.2585 17.1288 57.2585 15.3409C57.2585 13.5379 57.607 11.9621 58.304 10.6136C59.0009 9.25758 59.9896 8.20454 61.2699 7.45454C62.5578 6.69697 64.0843 6.31818 65.8494 6.31818C67.6146 6.31818 69.1373 6.69697 70.4176 7.45454C71.7055 8.20454 72.6979 9.25758 73.3949 10.6136C74.0919 11.9621 74.4403 13.5379 74.4403 15.3409C74.4403 17.1288 74.0919 18.7008 73.3949 20.0568C72.6979 21.4053 71.7055 22.4583 70.4176 23.2159C69.1373 23.9659 67.6146 24.3409 65.8494 24.3409ZM65.8722 20.5909C66.6752 20.5909 67.3456 20.3636 67.8835 19.9091C68.4214 19.447 68.8267 18.8182 69.0994 18.0227C69.3797 17.2273 69.5199 16.322 69.5199 15.3068C69.5199 14.2917 69.3797 13.3864 69.0994 12.5909C68.8267 11.7955 68.4214 11.1667 67.8835 10.7045C67.3456 10.2424 66.6752 10.0114 65.8722 10.0114C65.0616 10.0114 64.3797 10.2424 63.8267 10.7045C63.2813 11.1667 62.8684 11.7955 62.5881 12.5909C62.3153 13.3864 62.179 14.2917 62.179 15.3068C62.179 16.322 62.3153 17.2273 62.5881 18.0227C62.8684 18.8182 63.2813 19.447 63.8267 19.9091C64.3797 20.3636 65.0616 20.5909 65.8722 20.5909ZM104.551 0.727272V24H100.301L90.1761 9.35227H90.0057V24H85.0852V0.727272H89.4034L99.4489 15.3636H99.6534V0.727272H104.551ZM113.503 24.3295C112.389 24.3295 111.397 24.1364 110.526 23.75C109.654 23.3561 108.965 22.7765 108.457 22.0114C107.957 21.2386 107.707 20.2765 107.707 19.125C107.707 18.1553 107.885 17.3409 108.241 16.6818C108.598 16.0227 109.082 15.4924 109.696 15.0909C110.31 14.6894 111.007 14.3864 111.787 14.1818C112.575 13.9773 113.401 13.8333 114.264 13.75C115.279 13.6439 116.098 13.5455 116.719 13.4545C117.34 13.3561 117.791 13.2121 118.071 13.0227C118.351 12.8333 118.491 12.553 118.491 12.1818V12.1136C118.491 11.3939 118.264 10.8371 117.81 10.4432C117.363 10.0492 116.726 9.85227 115.901 9.85227C115.029 9.85227 114.336 10.0455 113.821 10.4318C113.306 10.8106 112.965 11.2879 112.798 11.8636L108.321 11.5C108.548 10.4394 108.995 9.52273 109.662 8.75C110.329 7.9697 111.188 7.37121 112.241 6.95454C113.302 6.5303 114.529 6.31818 115.923 6.31818C116.893 6.31818 117.821 6.43182 118.707 6.65909C119.601 6.88636 120.393 7.23864 121.082 7.71591C121.779 8.19318 122.329 8.80682 122.73 9.55682C123.132 10.2992 123.332 11.1894 123.332 12.2273V24H118.741V21.5795H118.605C118.325 22.125 117.95 22.6061 117.48 23.0227C117.01 23.4318 116.446 23.7538 115.787 23.9886C115.128 24.2159 114.366 24.3295 113.503 24.3295ZM114.889 20.9886C115.601 20.9886 116.23 20.8485 116.776 20.5682C117.321 20.2803 117.749 19.8939 118.06 19.4091C118.37 18.9242 118.526 18.375 118.526 17.7614V15.9091C118.374 16.0076 118.166 16.0985 117.901 16.1818C117.643 16.2576 117.351 16.3295 117.026 16.3977C116.7 16.4583 116.374 16.5152 116.048 16.5682C115.723 16.6136 115.427 16.6553 115.162 16.6932C114.594 16.7765 114.098 16.9091 113.673 17.0909C113.249 17.2727 112.92 17.5189 112.685 17.8295C112.45 18.1326 112.332 18.5114 112.332 18.9659C112.332 19.625 112.571 20.1288 113.048 20.4773C113.533 20.8182 114.147 20.9886 114.889 20.9886ZM127.088 24V6.54545H131.702V9.625H131.906C132.27 8.60227 132.876 7.79545 133.724 7.20454C134.573 6.61364 135.588 6.31818 136.77 6.31818C137.967 6.31818 138.986 6.61742 139.827 7.21591C140.668 7.80682 141.228 8.60985 141.509 9.625H141.69C142.046 8.625 142.69 7.82576 143.622 7.22727C144.562 6.62121 145.671 6.31818 146.952 6.31818C148.58 6.31818 149.902 6.83712 150.918 7.875C151.94 8.9053 152.452 10.3674 152.452 12.2614V24H147.622V13.2159C147.622 12.2462 147.365 11.5189 146.849 11.0341C146.334 10.5492 145.69 10.3068 144.918 10.3068C144.039 10.3068 143.353 10.5871 142.861 11.1477C142.368 11.7008 142.122 12.4318 142.122 13.3409V24H137.429V13.1136C137.429 12.2576 137.183 11.5758 136.69 11.0682C136.205 10.5606 135.565 10.3068 134.77 10.3068C134.232 10.3068 133.747 10.4432 133.315 10.7159C132.891 10.9811 132.554 11.3561 132.304 11.8409C132.054 12.3182 131.929 12.8788 131.929 13.5227V24H127.088ZM164.23 24.3409C162.435 24.3409 160.889 23.9773 159.594 23.25C158.306 22.5152 157.313 21.4773 156.616 20.1364C155.92 18.7879 155.571 17.1932 155.571 15.3523C155.571 13.5568 155.92 11.9811 156.616 10.625C157.313 9.26894 158.295 8.21212 159.56 7.45454C160.832 6.69697 162.325 6.31818 164.037 6.31818C165.188 6.31818 166.26 6.50379 167.253 6.875C168.253 7.23864 169.124 7.78788 169.866 8.52273C170.616 9.25758 171.2 10.1818 171.616 11.2955C172.033 12.4015 172.241 13.697 172.241 15.1818V16.5114H157.503V13.5114H167.685C167.685 12.8144 167.533 12.197 167.23 11.6591C166.927 11.1212 166.507 10.7008 165.969 10.3977C165.438 10.0871 164.821 9.93182 164.116 9.93182C163.382 9.93182 162.73 10.1023 162.162 10.4432C161.601 10.7765 161.162 11.2273 160.844 11.7955C160.526 12.3561 160.363 12.9811 160.355 13.6705V16.5227C160.355 17.3864 160.514 18.1326 160.832 18.7614C161.158 19.3902 161.616 19.875 162.207 20.2159C162.798 20.5568 163.499 20.7273 164.31 20.7273C164.848 20.7273 165.34 20.6515 165.787 20.5C166.234 20.3485 166.616 20.1212 166.935 19.8182C167.253 19.5152 167.495 19.1439 167.662 18.7045L172.139 19C171.912 20.0758 171.446 21.0152 170.741 21.8182C170.045 22.6136 169.143 23.2348 168.037 23.6818C166.938 24.1212 165.67 24.3409 164.23 24.3409ZM182.898 24V0.727272H187.818V10.3295H197.807V0.727272H202.716V24H197.807V14.3864H187.818V24H182.898ZM214.636 24.3409C212.841 24.3409 211.295 23.9773 210 23.25C208.712 22.5152 207.72 21.4773 207.023 20.1364C206.326 18.7879 205.977 17.1932 205.977 15.3523C205.977 13.5568 206.326 11.9811 207.023 10.625C207.72 9.26894 208.701 8.21212 209.966 7.45454C211.239 6.69697 212.731 6.31818 214.443 6.31818C215.595 6.31818 216.667 6.50379 217.659 6.875C218.659 7.23864 219.53 7.78788 220.273 8.52273C221.023 9.25758 221.606 10.1818 222.023 11.2955C222.439 12.4015 222.648 13.697 222.648 15.1818V16.5114H207.909V13.5114H218.091C218.091 12.8144 217.939 12.197 217.636 11.6591C217.333 11.1212 216.913 10.7008 216.375 10.3977C215.845 10.0871 215.227 9.93182 214.523 9.93182C213.788 9.93182 213.136 10.1023 212.568 10.4432C212.008 10.7765 211.568 11.2273 211.25 11.7955C210.932 12.3561 210.769 12.9811 210.761 13.6705V16.5227C210.761 17.3864 210.92 18.1326 211.239 18.7614C211.564 19.3902 212.023 19.875 212.614 20.2159C213.205 20.5568 213.905 20.7273 214.716 20.7273C215.254 20.7273 215.746 20.6515 216.193 20.5C216.64 20.3485 217.023 20.1212 217.341 19.8182C217.659 19.5152 217.902 19.1439 218.068 18.7045L222.545 19C222.318 20.0758 221.852 21.0152 221.148 21.8182C220.451 22.6136 219.549 23.2348 218.443 23.6818C217.345 24.1212 216.076 24.3409 214.636 24.3409ZM225.807 24V6.54545H230.5V9.59091H230.682C231 8.50758 231.534 7.68939 232.284 7.13636C233.034 6.57576 233.898 6.29545 234.875 6.29545C235.117 6.29545 235.379 6.31061 235.659 6.34091C235.939 6.37121 236.186 6.41288 236.398 6.46591V10.7614C236.17 10.6932 235.856 10.6326 235.455 10.5795C235.053 10.5265 234.686 10.5 234.352 10.5C233.64 10.5 233.004 10.6553 232.443 10.9659C231.89 11.2689 231.451 11.6932 231.125 12.2386C230.807 12.7841 230.648 13.4129 230.648 14.125V24H225.807ZM246.043 24.3409C244.247 24.3409 242.702 23.9773 241.406 23.25C240.118 22.5152 239.126 21.4773 238.429 20.1364C237.732 18.7879 237.384 17.1932 237.384 15.3523C237.384 13.5568 237.732 11.9811 238.429 10.625C239.126 9.26894 240.107 8.21212 241.372 7.45454C242.645 6.69697 244.137 6.31818 245.849 6.31818C247.001 6.31818 248.073 6.50379 249.065 6.875C250.065 7.23864 250.937 7.78788 251.679 8.52273C252.429 9.25758 253.012 10.1818 253.429 11.2955C253.846 12.4015 254.054 13.697 254.054 15.1818V16.5114H239.315V13.5114H249.497C249.497 12.8144 249.346 12.197 249.043 11.6591C248.74 11.1212 248.319 10.7008 247.781 10.3977C247.251 10.0871 246.634 9.93182 245.929 9.93182C245.194 9.93182 244.543 10.1023 243.974 10.4432C243.414 10.7765 242.974 11.2273 242.656 11.7955C242.338 12.3561 242.175 12.9811 242.168 13.6705V16.5227C242.168 17.3864 242.327 18.1326 242.645 18.7614C242.971 19.3902 243.429 19.875 244.02 20.2159C244.611 20.5568 245.312 20.7273 246.122 20.7273C246.66 20.7273 247.152 20.6515 247.599 20.5C248.046 20.3485 248.429 20.1212 248.747 19.8182C249.065 19.5152 249.308 19.1439 249.474 18.7045L253.952 19C253.724 20.0758 253.259 21.0152 252.554 21.8182C251.857 22.6136 250.955 23.2348 249.849 23.6818C248.751 24.1212 247.482 24.3409 246.043 24.3409Z" fill="white"/>
</svg>
